<?xml version="1.0" encoding="UTF-8" standalone="no"?>
<!-- Created with Inkscape (http://www.inkscape.org/) -->

<svg
   xmlns:dc="http://purl.org/dc/elements/1.1/"
   xmlns:cc="http://creativecommons.org/ns#"
   xmlns:rdf="http://www.w3.org/1999/02/22-rdf-syntax-ns#"
   xmlns:svg="http://www.w3.org/2000/svg"
   xmlns="http://www.w3.org/2000/svg"
   xmlns:sodipodi="http://sodipodi.sourceforge.net/DTD/sodipodi-0.dtd"
   xmlns:inkscape="http://www.inkscape.org/namespaces/inkscape"
   width="129.58609mm"
   height="32.701485mm"
   viewBox="0 0 129.58609 32.701485"
   version="1.1"
   id="svg4685"
   inkscape:version="0.92.3 (2405546, 2018-03-11)"
   sodipodi:docname="bwsoft-footer.svg">
  <defs
     id="defs4679" />
  <sodipodi:namedview
     id="base"
     pagecolor="#ffffff"
     bordercolor="#666666"
     borderopacity="1.0"
     inkscape:pageopacity="0.0"
     inkscape:pageshadow="2"
     inkscape:zoom="0.35"
     inkscape:cx="-729.39862"
     inkscape:cy="61.798089"
     inkscape:document-units="mm"
     inkscape:current-layer="layer1"
     showgrid="false"
     fit-margin-left="-2.7755576e-017"
     fit-margin-top="0"
     fit-margin-right="0"
     fit-margin-bottom="0"
     inkscape:window-width="2560"
     inkscape:window-height="1377"
     inkscape:window-x="3832"
     inkscape:window-y="2232"
     inkscape:window-maximized="1" />
  <metadata
     id="metadata4682">
    <rdf:RDF>
      <cc:Work
         rdf:about="">
        <dc:format>image/svg+xml</dc:format>
        <dc:type
           rdf:resource="http://purl.org/dc/dcmitype/StillImage" />
        <dc:title />
      </cc:Work>
    </rdf:RDF>
  </metadata>
  <g
     inkscape:label="Layer 1"
     inkscape:groupmode="layer"
     id="layer1"
     transform="translate(-41.04029,-132.48259)">
    <g
       transform="matrix(0.28222223,0,0,0.28222223,-248.62293,-51.233975)"
       id="g5684">
      <path
         inkscape:connector-curvature="0"
         id="path4416-2-5-5-1-5-0"
         d="m 1128.5355,661.69313 a 5.3521609,5.3521609 0 0 0 -7.5585,0.40003 5.3521609,5.3521609 0 0 0 -0.028,0.0311 c -14.9992,-10.54791 -34.3669,-9.9867 -45.2061,2.06387 l -21.4754,23.87566 c -2.0777,2.29961 -5.3869,3.30454 -9.4409,3.04298 -2.027,-0.13076 -4.2411,-0.58026 -6.5788,-1.33948 -2.3376,-0.7592 -5.8823,-4.64755 -7.3193,-3.02348 -1.4005,1.5826 -0.8527,7.91944 -0.044,12.42296 0.8085,4.50353 2.409,9.2475 4.714,14.04831 4.6101,9.60164 12.036,19.42976 21.5783,28.02498 9.5281,8.56412 20.0616,14.91104 30.0777,18.49435 5.0081,1.79162 9.885,2.89328 14.4454,3.23553 4.5604,0.34227 11.1422,0.24994 12.5344,-1.31772 1.4518,-1.63326 -3.0733,-4.77775 -4.1192,-7.06264 -1.0459,-2.28487 -1.7605,-4.48118 -2.1306,-6.52243 -0.7401,-4.08253 -0.108,-7.54798 1.9931,-9.89395 l 21.4754,-23.87566 c 10.7937,-12.00001 9.3648,-31.20575 -2.5679,-44.99582 a 5.3521609,5.3521609 0 0 0 0.051,-0.0498 5.3521609,5.3521609 0 0 0 -0.4,-7.55853 z"
         style="fill:none;fill-opacity:0.97701153;stroke:#ffffff;stroke-width:7.40172863;stroke-miterlimit:4;stroke-dasharray:none;stroke-opacity:1" />
      <path
         style="font-style:normal;font-variant:normal;font-weight:900;font-stretch:normal;font-size:40px;line-height:125%;font-family:'Alegreya SC';-inkscape-font-specification:'Alegreya SC, Heavy';text-align:start;letter-spacing:0px;word-spacing:0px;writing-mode:lr-tb;text-anchor:start;fill:#000000;fill-opacity:1;stroke:none;stroke-width:1px;stroke-linecap:butt;stroke-linejoin:miter;stroke-opacity:1"
         d="m 1290.3472,689.12733 c -7.0501,-0.494 -15.6191,5.20398 -13.2852,13.08789 0.4708,1.90195 1.7465,3.51525 3.3359,4.625 -4.974,-0.76223 -2.4121,5.96855 -3.9609,9.12695 4.0301,5.13661 12.2454,4.53336 18.0469,2.78906 2.2841,-0.75782 4.4499,-2.55504 5.7031,-4.32421 4.0477,7.13301 15.7972,7.17968 20.793,1.08398 -2.7231,6.82374 5.1674,3.38969 9.1875,3.96094 5.5073,1.44007 9.8079,-1.19219 7.414,-6.9668 1.1485,0.35248 7.6832,-9.94533 8.4805,-1.66797 -0.8677,3.09309 -5.264,3.23854 -3.7068,8.79695 5.419,0.28246 12.0147,-0.48845 17.8689,0.10344 3.441,-6.99404 -4.3419,-5.87136 -3.026,-11.38863 6.0029,-3.24932 7.2143,2.52108 7.6498,7.59011 -0.1446,7.33349 9.0209,2.38527 13.7141,3.33368 3.2709,0.10034 13.6111,2.73938 13.9515,-3.31174 0.8091,-1.61423 2.0143,-10.37833 2.2829,-4.99685 1.3433,10.10696 16.3097,11.73759 21.9844,4.51953 -2.2827,5.80721 2.7908,4.18221 6.6894,4.00976 3.5407,0.47107 7.18,-0.65341 9.8555,0.14453 7.2292,0.75632 14.6465,-0.73084 21.9433,0 -0.158,-2.09142 2.3155,1.10444 3.8125,0.35547 4.3285,0.30465 7.1206,-1.71169 10.9512,-0.38086 5.9584,1.08333 15.4752,-0.82827 15.4961,-8.43359 0.015,-1.95034 -0.7676,-3.94246 -2.2969,-5.19336 1.5995,-1.47641 3.4905,-8.56951 0.1973,-10.08789 -5.3605,-1.35155 -11.7081,-1.68119 -16.4199,1.68945 -1.3566,-4.92142 -8.3179,-1.14402 -11.9823,-2.41802 -4.801,0.12487 -9.628,0.17429 -14.4494,0.0919 0.1738,3.51648 -0.4885,3.10328 -2.4629,1.44922 -6.4644,-3.14676 -13.9566,-0.67536 -20.8125,-1.45117 -0.052,3.05921 -0.4198,3.80879 -2.3886,1.65039 -5.1846,-3.01771 -12.7136,-2.76613 -17.209,1.41797 1.658,-5.74579 -6.6303,-1.97644 -10.0562,-3.07912 -16.2679,-0.0106 -32.3088,0.0422 -48.5415,-0.12987 -5.8174,0.37088 -11.6509,0.11517 -17.4746,0.0918 0.019,3.35861 -0.3529,4.02245 -2.4512,1.73047 -6.0108,-3.5654 -15.8996,-2.71214 -19.1777,4.18554 -0.047,-4.03017 3.5485,-10.93783 -2.793,-11.34179 -2.2495,-0.49884 -4.5599,-0.72171 -6.8632,-0.66211 z m -232.3438,0.1914 c -5.3591,0.28356 -10.7219,0.31477 -16.0859,0.17579 -3.4802,6.47522 3.6891,6.96871 2.1436,12.67966 -0.8741,2.86755 1.4846,8.0157 -0.751,9.95119 -4.4849,2.17382 -3.0202,10.9942 3.7606,7.47521 6.7277,-0.5688 14.9046,2.18639 20.5187,-2.97911 -2.1836,5.82649 5.4629,2.03539 8.666,2.87695 10.3369,0.57964 20.8933,-0.55351 30.873,0.45117 6.8727,-1.0056 14.4233,0.26341 20.8477,-0.85742 2.397,-0.91681 0.7946,-12.0978 2.2219,-7.51897 -0.3413,8.1565 4.4033,9.60448 11.5556,7.8735 4.9528,0.48052 10.4725,0.26788 16.1678,-0.16898 1.8821,-5.4532 2.6772,-12.22092 5.1992,-16.90235 -0.3688,4.30558 1.3226,10.15823 -2.1074,12.09766 -2.2826,5.88111 1.5415,5.76043 6.1484,5.08203 5.287,-0.97713 11.7669,1.79324 16.0332,-1.44726 1.4107,-3.3851 -0.3556,-11.0157 0.94,-10.08528 5.8238,-1.94829 3.6436,6.54054 0.069,5.80314 -3.1046,8.05749 4.2707,5.79132 9.7001,5.66405 4.5669,2.63544 10.013,-4.10848 7.7443,0.16301 12.4784,-0.47719 23.8475,0.2843 35.9354,-0.17207 8.6267,0.45692 16.475,-0.12673 25.297,0.1623 0.6784,-0.8358 3.9396,1.26539 5.5942,0.19302 5.3461,2.28838 7.9642,-5.51734 3.355,-7.25552 -2.1942,-1.64904 -2.6363,-3.44891 -0.4551,-5.125 3.3455,-4.66377 -0.097,-11.5206 -5.7402,-11.93164 -13.0673,-0.92793 -25.7015,0.12746 -38.6971,-0.30645 -15.7107,0.10817 -31.5014,0.0441 -47.1056,-0.0959 -17.5325,0.34743 -35.2827,0.0946 -52.9825,0.0703 -2.0925,4.78313 1.8687,7.09468 2.2618,11.5625 -2.7009,-2.53621 -10.0206,2.33526 -7.9141,-4.08984 5.2252,0.29961 5.1305,-11.00005 -1.5875,-7.41776 -4.4498,1.09793 -13.3054,-2.92205 -12.1156,4.37088 3.277,4.68995 3.6707,7.8178 -3.521,6.64997 -6.6113,-1.42593 2.979,-4.00741 1.3176,-8.48777 0.9693,-5.39755 -8.4829,-1.30001 -12.2986,-2.46298 -7.7403,-0.67512 -16.5944,0.77417 -24.2519,-0.48828 -1.5,-4.34909 -6.6375,-5.6146 -10.7364,-5.50977 z m -1.6894,9.15625 c 1.9632,0.40831 -1.3241,3.80022 -0.043,-0.008 z m 233.9531,0.16993 c 1.3471,0.10686 0.4664,1.06634 0,0 z m -221.5039,3.0625 c 1.9371,0.7397 1.7428,7.82102 -0.084,3.11523 -1.8977,-1.13681 -1.6483,-2.00166 -0.3399,-3.58008 z m 230.7715,0.59179 c 0.6218,3.11342 -3.6246,-0.96632 -1.295,-0.22461 -0.2485,0.58717 2.0033,-0.70889 1.295,0.22461 z m -70.8399,0.10157 c -0.086,1.44187 2.6808,11.28472 -1.2383,9.96093 0.6269,-2.54825 -1.2017,-9.86179 1.2383,-9.96093 z m -138.1894,-0.084 c 3.4798,8.37208 -6.3803,5.6961 -0.3555,3.45899 0.1956,-1.0567 -0.023,-2.58959 0.3555,-3.45899 z m 125.832,0 c 0.8935,2.55155 -2.8285,-0.18516 0,0 z m 226.0039,0 c -1.1729,2.56336 2.215,10.41852 -1.3711,10.26367 -2.1942,-1.64904 -2.6363,-3.44891 -0.4551,-5.125 1.4919,-1.31528 0.6721,-4.54021 1.8262,-5.13867 z m -302.7969,0.64453 c -0.387,-0.57339 0.521,-1.08083 0,0 z m 233.6719,0 c -0.3871,-0.57339 0.521,-1.08083 0,0 z m -123.375,6.28711 c -5.5514,-2.58713 -0.1018,-2.65795 0,-6.89062 0,2.29687 0,4.59375 0,6.89062 z m 169.1406,-5.80664 c -0.3405,-0.86665 -0.095,-2.01406 0,0 z m -95.7871,-0.0273 c -0.3135,-0.7999 -0.1098,-1.98961 0,0 z M 1152.48,702.39689 c 0.045,0.3527 -0.1451,-0.0579 0,0 z m 233.6719,0 c 0.045,0.3527 -0.1451,-0.0579 0,0 z m 77.75,0.91601 c -0.1332,2.01672 0.5599,4.108 2.0351,5.51954 -1.8833,4.84779 -2.8056,2.35967 -4.6953,-2.53907 0.7817,-1.04074 1.7442,-2.275 2.6602,-2.98047 z m -202.6993,0.3418 c 0.2165,1.04016 -0.4057,1.26559 0,0 z m 169.1407,0 c 0.2164,1.04016 -0.4058,1.26559 0,0 z m -119.2247,1.11914 c 0.2271,1.54713 0.263,5.54041 0.012,5.54492 -0.1909,-1.67128 -0.2426,-5.24175 -0.012,-5.54492 z m 95.7813,0 c 0.227,1.54713 0.263,5.54041 0.012,5.54492 -0.1909,-1.67128 -0.2425,-5.24175 -0.012,-5.54492 z m -225.8652,1.13086 c 0.062,3.29399 -0.4717,2.56726 0,0 z m 23.1816,6.25586 c -2.0123,2.34062 -7.3764,0.51575 -5.6094,-4.08203 4.2544,-0.21421 6.8778,-1.58572 5.6094,4.08203 z m -147.3926,-3.08203 c 1.767,0.37813 0.6529,2.91627 -1.0117,1.75195 0.3757,-0.54351 -0.6403,-2.55035 1.0117,-1.75195 z m 230.4336,1.31445 c 1.6372,0.98786 -1.962,-0.80248 0,0 z m 131.7246,1.55469 c -1.0075,3.04913 0.2549,-3.93073 0,0 z m -95.8203,-0.0703 c -1.1302,6.40006 0.3206,-5.01046 0,0 z m -241.6914,-0.4082 c -0.6815,0.10737 -0.4105,-0.0747 0,0 z m 93.2031,0 c -0.6815,0.10737 -0.4105,-0.0747 0,0 z m 66.0938,0 c -0.6815,0.10737 -0.4106,-0.0747 0,0 z m -24.3906,0.83007 c -1.6766,1.30105 -0.5242,-2.39263 0,0 z"
         id="text4136-7-7-0-3-9-4"
         inkscape:connector-curvature="0" />
      <g
         aria-label="Bellwether Softworks"
         style="font-style:normal;font-variant:normal;font-weight:900;font-stretch:normal;line-height:0%;font-family:'Alegreya SC';-inkscape-font-specification:'Alegreya SC, Heavy';text-align:start;letter-spacing:0px;word-spacing:0px;writing-mode:lr-tb;text-anchor:start;fill:#ffffff;fill-opacity:1;stroke:none;stroke-width:1px;stroke-linecap:butt;stroke-linejoin:miter;stroke-opacity:1"
         id="text4136-7-7-0-4-7">
        <path
           d="m 1067.4702,697.1871 q 0,3.52 -3.88,6.12 2.24,0.8 3.6,2.12 1.4,1.28 1.4,3.68 0,8.36 -11.52,8.36 -3.28,-0.44 -6.56,-0.44 l -7.24,0.28 0.36,-3.6 q 1.56,-0.28 2.12,-0.88 0.56,-0.6 0.56,-2.04 l 0.04,-14.28 q 0,-1.84 -1.08,-1.84 l -1.36,0.08 -0.48,-0.48 0.48,-3.2 q 5.48,0.08 6.76,0.08 l 7.68,-0.28 q 4.48,0 6.8,1.64 2.32,1.6 2.32,4.68 z m -13.4,13.44 q 0,1.84 2.96,1.84 2.96,0 2.96,-2.92 0,-2.12 -2.56,-2.92 h -3.16 z m 5.16,-12 q 0,-2.72 -3.88,-2.72 -0.68,0 -0.72,0.56 l -0.28,5 q 2.28,0.44 3.2,0.44 0.64,-0.4 1.16,-1.36 0.52,-0.96 0.52,-1.92 z"
           style="font-size:40px;line-height:1.25"
           id="path822" />
        <path
           d="m 1079.2746,711.1871 q 0,1.2 0.24,1.56 0.24,0.32 1.64,0.32 1.44,0 2.12,-0.6 0.68,-0.6 0.96,-2.6 l 4.6,-0.32 0.44,0.52 q -0.6,3.12 -0.92,6.64 l -0.56,0.52 q -5.32,-0.2 -8.8,-0.2 -5.08,0 -9.24,0.32 l 0.32,-3.12 q 1.2,-0.16 1.64,-0.76 0.44,-0.6 0.44,-2 l 0.04,-9.92 q 0,-1 -0.16,-1.32 -0.16,-0.36 -0.68,-0.36 l -0.84,0.04 -0.44,-0.48 0.32,-2.64 q 4.96,0.08 10.04,0.08 5.08,0 8.4,-0.36 l 0.48,0.52 q -0.6,3.44 -0.76,6.4 l -5,0.28 q 0.08,-0.72 0.08,-1.4 0,-0.68 -0.6,-1 -0.6,-0.32 -1.8,-0.32 -1.2,0 -1.4,0.16 -0.2,0.16 -0.2,0.6 l -0.16,3.08 h 2.6 l 3.6,-0.16 0.44,0.52 -0.48,3.88 q -2.4,-0.08 -3.2,-0.08 -0.76,0 -3.16,0.16 z"
           style="font-size:40px;line-height:1.25"
           id="path824" />
        <path
           d="m 1107.5396,717.2271 q -4.92,-0.2 -8.16,-0.2 -4.88,0 -9.04,0.32 l 0.32,-3.12 q 1.24,-0.16 1.68,-0.76 0.44,-0.6 0.44,-2 v -10.04 q 0,-0.96 -0.24,-1.24 -0.24,-0.32 -0.92,-0.32 h -0.8 l -0.36,-0.48 0.28,-2.52 h 5.56 l 7.32,-0.12 -0.4,3.32 q -1.76,0.16 -2.36,0.44 -0.6,0.28 -0.64,0.96 -0.36,4.68 -0.36,10.44 0,1.16 1.04,1.16 1.64,0 2.2,-1 0.56,-1.04 0.72,-4.2 l 4.6,-0.44 0.44,0.52 q -0.48,4.2 -0.76,8.72 z"
           style="font-size:40px;line-height:1.25"
           id="path826" />
        <path
           d="m 1126.8365,717.2271 q -4.92,-0.2 -8.16,-0.2 -4.88,0 -9.04,0.32 l 0.32,-3.12 q 1.24,-0.16 1.68,-0.76 0.44,-0.6 0.44,-2 v -10.04 q 0,-0.96 -0.24,-1.24 -0.24,-0.32 -0.92,-0.32 h -0.8 l -0.36,-0.48 0.28,-2.52 h 5.56 l 7.32,-0.12 -0.4,3.32 q -1.76,0.16 -2.36,0.44 -0.6,0.28 -0.64,0.96 -0.36,4.68 -0.36,10.44 0,1.16 1.04,1.16 1.64,0 2.2,-1 0.56,-1.04 0.72,-4.2 l 4.6,-0.44 0.44,0.52 q -0.48,4.2 -0.76,8.72 z"
           style="font-size:40px;line-height:1.25"
           id="path828" />
        <path
           d="m 1139.0934,711.3871 h 0.76 q 0.2,-0.64 1.12,-4.84 0.96,-4.2 1.12,-5.24 l 0.2,-0.68 q 0.04,-0.56 -0.24,-0.68 -0.28,-0.12 -0.76,-0.12 -0.48,0 -0.72,0 l -0.24,-0.36 0.32,-2.68 q 3.52,0.08 5.56,0.08 l 6.28,-0.12 0.28,0.28 -0.24,2.88 q -1.48,0.2 -1.72,0.32 -0.2,0.08 -0.2,0.64 0,1.16 1.36,10.52 h 0.72 q 0.32,-1.28 1.32,-5.76 1,-4.52 1,-5 0,-0.52 -0.16,-0.6 -0.12,-0.08 -0.68,-0.08 h -0.72 l -0.24,-0.36 0.24,-2.8 q 3.08,0.08 4.96,0.08 l 3.96,-0.04 -0.2,2.96 q -0.48,0.16 -0.72,0.52 -0.2,0.32 -0.52,1.2 l -4.28,15.4 -9.68,0.52 q -0.52,-3.24 -1.12,-8.08 h -0.48 l -1.76,7.56 -9.68,0.52 q -2.88,-13 -3.36,-14.76 -0.48,-1.8 -0.84,-2.28 -0.32,-0.48 -0.88,-0.56 l -0.28,-0.36 0.32,-2.68 q 2.64,0.08 4.44,0.08 l 6.28,-0.12 0.24,0.28 -0.2,2.88 q -1.48,0.16 -1.72,0.32 -0.24,0.12 -0.24,1.12 0,0.96 1.4,10.04 z"
           style="font-size:40px;line-height:1.25"
           id="path830" />
        <path
           d="m 1172.4777,711.1871 q 0,1.2 0.24,1.56 0.24,0.32 1.64,0.32 1.44,0 2.12,-0.6 0.68,-0.6 0.96,-2.6 l 4.6,-0.32 0.44,0.52 q -0.6,3.12 -0.92,6.64 l -0.56,0.52 q -5.32,-0.2 -8.8,-0.2 -5.08,0 -9.24,0.32 l 0.32,-3.12 q 1.2,-0.16 1.64,-0.76 0.44,-0.6 0.44,-2 l 0.04,-9.92 q 0,-1 -0.16,-1.32 -0.16,-0.36 -0.68,-0.36 l -0.84,0.04 -0.44,-0.48 0.32,-2.64 q 4.96,0.08 10.04,0.08 5.08,0 8.4,-0.36 l 0.48,0.52 q -0.6,3.44 -0.76,6.4 l -5,0.28 q 0.08,-0.72 0.08,-1.4 0,-0.68 -0.6,-1 -0.6,-0.32 -1.8,-0.32 -1.2,0 -1.4,0.16 -0.2,0.16 -0.2,0.6 l -0.16,3.08 h 2.6 l 3.6,-0.16 0.44,0.52 -0.48,3.88 q -2.4,-0.08 -3.2,-0.08 -0.76,0 -3.16,0.16 z"
           style="font-size:40px;line-height:1.25"
           id="path832" />
        <path
           d="m 1189.7427,711.7871 v -10.72 q -1.08,0 -1.44,0.84 -0.32,0.84 -0.56,3.48 l -4.44,0.24 q 0.2,-4.92 0.24,-8.64 l 0.44,-0.48 4.12,0.36 h 10.44 l 4.16,-0.36 0.48,0.48 0.12,8.4 -4.48,0.24 q -0.24,-3 -0.52,-3.76 -0.28,-0.8 -1.32,-0.8 -0.12,4.8 -0.12,10.72 0,1.2 0.36,1.68 0.4,0.48 1.36,0.48 l 1.64,-0.12 0.2,0.2 -0.32,3.2 q -5.04,-0.2 -6.96,-0.2 l -6.96,0.32 0.24,-3.16 q 2,-0.16 2.64,-0.64 0.68,-0.48 0.68,-1.76 z"
           style="font-size:40px;line-height:1.25"
           id="path834" />
        <path
           d="m 1225.7315,711.9471 q 0,1.12 0.28,1.6 0.32,0.44 1,0.44 l 0.84,-0.08 0.32,0.4 -0.32,2.76 q -2.96,-0.04 -5.88,-0.04 l -5.72,0.04 0.24,-2.96 q 1.16,-0.04 1.64,-0.56 0.52,-0.52 0.52,-1.64 v -2.88 q -0.84,-0.04 -1.56,-0.04 l -3.52,0.28 v 2.68 q 0,1.28 0.2,1.72 0.2,0.4 0.84,0.4 l 0.8,-0.08 0.28,0.36 -0.28,2.8 q -4.32,-0.12 -5.48,-0.12 -1.12,0 -2.56,0.04 -1.44,0.04 -3.24,0.08 l 0.28,-2.88 q 1.28,-0.24 1.68,-0.72 0.4,-0.48 0.4,-1.8 v -10.32 q 0,-0.96 -0.24,-1.24 -0.24,-0.32 -0.92,-0.32 h -0.84 l -0.32,-0.48 0.28,-2.52 h 4.36 l 7,-0.12 -0.24,3.04 q -1,0.16 -1.32,0.44 -0.32,0.28 -0.36,0.96 l -0.2,3.52 2.44,0.12 q 1.56,0 2.52,-0.08 v -3.32 q 0,-0.92 -0.24,-1.24 -0.24,-0.32 -0.92,-0.32 h -0.88 l -0.32,-0.48 0.28,-2.52 h 5.6 l 6.08,-0.12 -0.24,2.96 q -1.2,0.2 -1.56,0.52 -0.36,0.28 -0.4,1.16 -0.32,3.4 -0.32,10.56 z"
           style="font-size:40px;line-height:1.25"
           id="path836" />
        <path
           d="m 1238.5715,711.1871 q 0,1.2 0.24,1.56 0.24,0.32 1.64,0.32 1.44,0 2.12,-0.6 0.68,-0.6 0.96,-2.6 l 4.6,-0.32 0.44,0.52 q -0.6,3.12 -0.92,6.64 l -0.56,0.52 q -5.32,-0.2 -8.8,-0.2 -5.08,0 -9.24,0.32 l 0.32,-3.12 q 1.2,-0.16 1.64,-0.76 0.44,-0.6 0.44,-2 l 0.04,-9.92 q 0,-1 -0.16,-1.32 -0.16,-0.36 -0.68,-0.36 l -0.84,0.04 -0.44,-0.48 0.32,-2.64 q 4.96,0.08 10.04,0.08 5.08,0 8.4,-0.36 l 0.48,0.52 q -0.6,3.44 -0.76,6.4 l -5,0.28 q 0.08,-0.72 0.08,-1.4 0,-0.68 -0.6,-1 -0.6,-0.32 -1.8,-0.32 -1.2,0 -1.4,0.16 -0.2,0.16 -0.2,0.6 l -0.16,3.08 h 2.6 l 3.6,-0.16 0.44,0.52 -0.48,3.88 q -2.4,-0.08 -3.2,-0.08 -0.76,0 -3.16,0.16 z"
           style="font-size:40px;line-height:1.25"
           id="path838" />
        <path
           d="m 1259.1965,710.1871 v 1.68 q 0,1.36 0.36,1.72 0.4,0.36 2,0.44 l 0.2,0.28 -0.36,2.84 q -4.32,-0.12 -5.56,-0.12 -2.36,0 -6.12,0.32 l 0.28,-3.12 q 1.2,-0.2 1.64,-0.8 0.48,-0.6 0.48,-1.88 v -10.4 q 0,-0.72 -0.2,-1 -0.16,-0.28 -0.6,-0.28 l -1.2,0.04 -0.36,-0.4 0.4,-2.68 q 3.48,0.04 4.84,0.04 l 6.4,-0.2 q 9.52,0 9.52,6 0,3.64 -3.88,5.88 l 1.84,2.84 q 1.8,2.76 3.12,2.76 l 0.4,0.56 -0.32,2.48 -5.44,0.32 q -1.48,0 -2.36,-0.6 -0.84,-0.64 -1.48,-2.2 l -1.84,-4.52 z m 4,-5.08 q 0.32,-0.6 0.32,-1.8 0,-1.2 -0.84,-1.72 -0.8,-0.56 -2.6,-0.56 -0.32,0 -0.44,0.12 -0.2,0.28 -0.32,4.72 l 2.4,0.32 q 1.16,-0.48 1.48,-1.08 z"
           style="font-size:40px;line-height:1.25"
           id="path840" />
        <path
           d="m 1287.1771,717.5071 q -2.08,0 -4.04,-0.44 -1.96,-0.4 -2.92,-0.84 l -0.92,-0.44 -0.48,-0.72 q 0.72,-3.96 0.84,-6.6 l 5.04,-0.36 q 0,4.08 3.52,4.08 1.24,0 1.92,-0.44 0.72,-0.44 0.72,-1.08 0,-0.64 -0.28,-1.04 -0.28,-0.44 -0.96,-0.84 -0.64,-0.4 -1.2,-0.64 -0.52,-0.28 -1.64,-0.76 -1.12,-0.48 -1.64,-0.72 -2.8,-1.24 -4.48,-2.92 -1.64,-1.72 -1.64,-4.52 0,-3.88 3.36,-6.2 3.4,-2.36 8.96,-2.36 1.96,0 3.84,0.28 1.92,0.28 3.8,0.84 l 0.48,0.88 q -0.76,3.36 -1.08,6.96 l -4.64,0.32 -0.48,-0.32 v -0.64 q 0,-2.8 -2.92,-2.8 -1.12,0 -1.84,0.52 -0.68,0.48 -0.68,1.28 0,0.56 0.24,0.88 0.28,0.32 0.44,0.52 0.2,0.2 0.56,0.4 0.36,0.2 0.6,0.36 0.24,0.12 0.72,0.36 0.48,0.2 0.76,0.32 0.28,0.12 0.84,0.36 0.6,0.24 1.48,0.64 0.88,0.36 1.88,0.92 1,0.52 2.12,1.4 2.24,1.84 2.24,5 0,3.88 -3.36,6.12 -3.32,2.24 -9.16,2.24 z"
           style="font-size:40px;line-height:1.25"
           id="path842" />
        <path
           d="m 1309.2484,706.5071 q 0,3.48 0.44,5.04 0.48,1.52 1.76,1.52 1.28,0 1.68,-0.96 0.44,-0.96 0.44,-4.44 0,-3.48 -0.48,-4.96 -0.44,-1.52 -1.76,-1.52 -1.28,0 -1.68,0.92 -0.4,0.92 -0.4,4.4 z m 12.56,0.12 q 0,5.16 -2.8,7.96 -2.76,2.8 -7.84,2.8 -10.16,0 -10.16,-10.16 0,-10.72 10.84,-10.72 5.04,0 7.48,2.48 2.48,2.44 2.48,7.64 z"
           style="font-size:40px;line-height:1.25"
           id="path844" />
        <path
           d="m 1332.5559,711.2271 q 0,1.12 0.24,1.48 0.28,0.36 1.2,0.36 0.96,0 1.8,-0.28 l 0.6,0.64 -0.48,3.68 q -3.92,-0.08 -5.48,-0.08 -2.56,0 -7.4,0.28 l 0.32,-3.12 q 1.2,-0.16 1.64,-0.72 0.44,-0.6 0.44,-2 l 0.04,-9.92 q 0,-1 -0.16,-1.32 -0.16,-0.36 -0.68,-0.36 l -0.84,0.04 -0.44,-0.48 0.32,-2.64 q 4.96,0.08 9.72,0.08 4.8,0 7.76,-0.36 l 0.44,0.52 q -0.44,3.52 -0.56,6.36 l -4.96,0.28 q 0.04,-0.68 0.04,-1.32 0,-0.68 -0.48,-1 -0.48,-0.36 -1.4,-0.36 -0.92,0 -1.12,0.16 -0.2,0.16 -0.2,0.6 l -0.2,3.6 2.64,0.04 3.48,-0.16 0.44,0.48 -0.44,3.88 q -2.36,-0.08 -3.2,-0.08 -0.84,0 -3.08,0.16 z"
           style="font-size:40px;line-height:1.25"
           id="path846" />
        <path
           d="m 1348.3365,711.7871 v -10.72 q -1.08,0 -1.44,0.84 -0.32,0.84 -0.56,3.48 l -4.44,0.24 q 0.2,-4.92 0.24,-8.64 l 0.44,-0.48 4.12,0.36 h 10.44 l 4.16,-0.36 0.48,0.48 0.12,8.4 -4.48,0.24 q -0.24,-3 -0.52,-3.76 -0.28,-0.8 -1.32,-0.8 -0.12,4.8 -0.12,10.72 0,1.2 0.36,1.68 0.4,0.48 1.36,0.48 l 1.64,-0.12 0.2,0.2 -0.32,3.2 q -5.04,-0.2 -6.96,-0.2 l -6.96,0.32 0.24,-3.16 q 2,-0.16 2.64,-0.64 0.68,-0.48 0.68,-1.76 z"
           style="font-size:40px;line-height:1.25"
           id="path848" />
        <path
           d="m 1372.7652,711.3871 h 0.76 q 0.2,-0.64 1.12,-4.84 0.96,-4.2 1.12,-5.24 l 0.2,-0.68 q 0.04,-0.56 -0.24,-0.68 -0.28,-0.12 -0.76,-0.12 -0.48,0 -0.72,0 l -0.24,-0.36 0.32,-2.68 q 3.52,0.08 5.56,0.08 l 6.28,-0.12 0.28,0.28 -0.24,2.88 q -1.48,0.2 -1.72,0.32 -0.2,0.08 -0.2,0.64 0,1.16 1.36,10.52 h 0.72 q 0.32,-1.28 1.32,-5.76 1,-4.52 1,-5 0,-0.52 -0.16,-0.6 -0.12,-0.08 -0.68,-0.08 h -0.72 l -0.24,-0.36 0.24,-2.8 q 3.08,0.08 4.96,0.08 l 3.96,-0.04 -0.2,2.96 q -0.48,0.16 -0.72,0.52 -0.2,0.32 -0.52,1.2 l -4.28,15.4 -9.68,0.52 q -0.52,-3.24 -1.12,-8.08 h -0.48 l -1.76,7.56 -9.68,0.52 q -2.88,-13 -3.36,-14.76 -0.48,-1.8 -0.84,-2.28 -0.32,-0.48 -0.88,-0.56 l -0.28,-0.36 0.32,-2.68 q 2.64,0.08 4.44,0.08 l 6.28,-0.12 0.24,0.28 -0.2,2.88 q -1.48,0.16 -1.72,0.32 -0.24,0.12 -0.24,1.12 0,0.96 1.4,10.04 z"
           style="font-size:40px;line-height:1.25"
           id="path850" />
        <path
           d="m 1405.0296,706.5071 q 0,3.48 0.44,5.04 0.48,1.52 1.76,1.52 1.28,0 1.68,-0.96 0.44,-0.96 0.44,-4.44 0,-3.48 -0.48,-4.96 -0.44,-1.52 -1.76,-1.52 -1.28,0 -1.68,0.92 -0.4,0.92 -0.4,4.4 z m 12.56,0.12 q 0,5.16 -2.8,7.96 -2.76,2.8 -7.84,2.8 -10.16,0 -10.16,-10.16 0,-10.72 10.84,-10.72 5.04,0 7.48,2.48 2.48,2.44 2.48,7.64 z"
           style="font-size:40px;line-height:1.25"
           id="path852" />
        <path
           d="m 1428.3371,710.1871 v 1.68 q 0,1.36 0.36,1.72 0.4,0.36 2,0.44 l 0.2,0.28 -0.36,2.84 q -4.32,-0.12 -5.56,-0.12 -2.36,0 -6.12,0.32 l 0.28,-3.12 q 1.2,-0.2 1.64,-0.8 0.48,-0.6 0.48,-1.88 v -10.4 q 0,-0.72 -0.2,-1 -0.16,-0.28 -0.6,-0.28 l -1.2,0.04 -0.36,-0.4 0.4,-2.68 q 3.48,0.04 4.84,0.04 l 6.4,-0.2 q 9.52,0 9.52,6 0,3.64 -3.88,5.88 l 1.84,2.84 q 1.8,2.76 3.12,2.76 l 0.4,0.56 -0.32,2.48 -5.44,0.32 q -1.48,0 -2.36,-0.6 -0.84,-0.64 -1.48,-2.2 l -1.84,-4.52 z m 4,-5.08 q 0.32,-0.6 0.32,-1.8 0,-1.2 -0.84,-1.72 -0.8,-0.56 -2.6,-0.56 -0.32,0 -0.44,0.12 -0.2,0.28 -0.32,4.72 l 2.4,0.32 q 1.16,-0.48 1.48,-1.08 z"
           style="font-size:40px;line-height:1.25"
           id="path854" />
        <path
           d="m 1444.6165,711.7471 v -10.32 q 0,-0.96 -0.24,-1.24 -0.24,-0.32 -0.92,-0.32 h -0.84 l -0.32,-0.48 0.32,-2.56 q 5,0.04 5.52,0.04 l 6,-0.12 -0.24,3.04 q -1.24,0.32 -1.6,0.64 -0.32,0.28 -0.36,1.08 l -0.24,10.44 q 0,1.28 0.2,1.72 0.2,0.4 0.84,0.4 l 1,-0.08 0.28,0.36 -0.28,2.8 q -4.36,-0.12 -5.76,-0.12 l -5.72,0.16 0.24,-2.84 q 1.32,-0.32 1.72,-0.8 0.4,-0.48 0.4,-1.8 z m 10.92,-9.44 q 0.64,-0.56 0.64,-1.24 0,-0.72 -0.28,-0.92 -0.24,-0.2 -0.96,-0.24 l -0.24,-0.36 0.32,-2.76 q 3.32,0.08 4.88,0.08 l 5,-0.16 0.36,0.52 -0.32,2.52 q -2.48,1.44 -5.04,4.92 l -0.84,1.2 2.76,5.44 q 1.28,2.52 3.12,2.84 l 0.36,0.52 -0.36,2.52 q -4.52,0.36 -5.64,0.36 -1.12,0 -1.88,-0.52 -0.76,-0.52 -1.52,-2 l -3.96,-7.88 0.16,-1 z"
           style="font-size:40px;line-height:1.25"
           id="path856" />
        <path
           d="m 1473.1646,717.3871 q -1.76,0 -3.44,-0.36 -1.68,-0.32 -3.28,-1 l -0.44,-0.6 q 0.64,-3.2 0.76,-5.08 l 4.52,-0.32 q 0,1.36 0.72,2.08 0.72,0.72 2.28,0.72 1.6,0 1.6,-0.92 0,-0.72 -0.96,-1.24 -1,-0.48 -2.12,-0.92 -3.68,-1.32 -5.16,-2.76 -1.48,-1.44 -1.48,-3.68 0,-3.12 2.88,-4.96 2.88,-1.84 7.68,-1.84 3.28,0 6.48,0.88 l 0.44,0.76 q -0.64,2.64 -0.92,5.44 l -4.16,0.28 -0.44,-0.28 v -0.32 q 0,-0.96 -0.6,-1.48 -0.6,-0.56 -1.52,-0.56 -0.92,0 -1.44,0.32 -0.52,0.28 -0.52,0.68 0,0.36 0.08,0.6 0.12,0.2 0.36,0.4 0.28,0.2 0.48,0.36 0.24,0.16 0.68,0.36 0.48,0.16 0.76,0.28 0.32,0.12 0.92,0.32 0.6,0.2 1.32,0.48 0.76,0.28 1.56,0.72 0.84,0.4 1.76,1.12 1.84,1.36 1.84,3.96 0,3.08 -2.84,4.84 -2.8,1.72 -7.8,1.72 z"
           style="font-size:40px;line-height:1.25"
           id="path858" />
      </g>
      <g
         aria-label="LLC"
         transform="scale(1.0192835,0.98108131)"
         style="font-style:normal;font-variant:normal;font-weight:normal;font-stretch:normal;line-height:0%;font-family:'Alegreya SC';-inkscape-font-specification:'Alegreya SC, Normal';text-align:start;letter-spacing:0px;word-spacing:0px;writing-mode:lr-tb;text-anchor:start;fill:#ffffff;fill-opacity:1;stroke:none;stroke-width:1px;stroke-linecap:butt;stroke-linejoin:miter;stroke-opacity:1"
         id="text4140-6-7-9-8">
        <path
           d="m 1438.636,742.85042 q -2.5728,-0.13307 -3.5191,-0.13307 -1.4342,0 -2.4397,0.14786 l 0.089,-0.68016 q 0.5767,-0.0887 0.7837,-0.34008 0.2218,-0.26615 0.2218,-0.90195 l 0.015,-6.21012 q 0,-0.47316 -0.1183,-0.6358 -0.1035,-0.16265 -0.4288,-0.16265 l -0.5028,0.0296 -0.03,-0.0591 0.1035,-0.65059 q 1.0941,0.0444 1.5229,0.0444 0.5915,0 1.7152,-0.13307 l -0.059,0.66537 q -0.1627,0.0296 -0.2958,0.0591 -0.1182,0.0148 -0.2217,0.0592 -0.089,0.0444 -0.1627,0.0739 -0.059,0.0148 -0.1183,0.11829 -0.044,0.0887 -0.074,0.13307 -0.015,0.0296 -0.044,0.17743 -0.015,0.13308 -0.03,0.19222 -0.03,0.29572 -0.03,0.56187 -0.1774,2.46926 -0.1774,5.7074 0,0.75409 0.207,0.94631 0.2218,0.19222 1.2716,0.19222 1.0646,0 1.4638,-0.36966 0.414,-0.36965 0.6653,-1.72996 l 0.6506,-0.0739 0.044,0.0739 q -0.2662,1.34553 -0.4288,2.80934 z"
           style="font-size:14.78601837px;line-height:1.25"
           id="path861" />
        <path
           d="m 1446.1445,742.85042 q -2.5728,-0.13307 -3.5191,-0.13307 -1.4342,0 -2.4397,0.14786 l 0.089,-0.68016 q 0.5767,-0.0887 0.7837,-0.34008 0.2218,-0.26615 0.2218,-0.90195 l 0.015,-6.21012 q 0,-0.47316 -0.1183,-0.6358 -0.1035,-0.16265 -0.4288,-0.16265 l -0.5027,0.0296 -0.03,-0.0591 0.1035,-0.65059 q 1.0942,0.0444 1.523,0.0444 0.5914,0 1.7151,-0.13307 l -0.059,0.66537 q -0.1627,0.0296 -0.2957,0.0591 -0.1183,0.0148 -0.2218,0.0592 -0.089,0.0444 -0.1627,0.0739 -0.059,0.0148 -0.1182,0.11829 -0.044,0.0887 -0.074,0.13307 -0.015,0.0296 -0.044,0.17743 -0.015,0.13308 -0.03,0.19222 -0.03,0.29572 -0.03,0.56187 -0.1774,2.46926 -0.1774,5.7074 0,0.75409 0.207,0.94631 0.2218,0.19222 1.2716,0.19222 1.0646,0 1.4638,-0.36966 0.414,-0.36965 0.6654,-1.72996 l 0.6506,-0.0739 0.044,0.0739 q -0.2661,1.34553 -0.4288,2.80934 z"
           style="font-size:14.78601837px;line-height:1.25"
           id="path863" />
        <path
           d="m 1454.7324,742.30334 q -1.2716,0.59144 -3.1642,0.59144 -1.8926,0 -3.0903,-1.22724 -1.1977,-1.24203 -1.1977,-3.41557 0,-2.17355 1.4639,-3.65215 1.4638,-1.4786 3.6965,-1.4786 1.0941,0 2.5727,0.35486 l 0.059,0.0887 q -0.281,1.10895 -0.3697,2.46927 l -0.7097,0.0591 q 0.044,-0.39922 0.044,-0.72451 0,-1.3751 -2.1736,-1.3751 -1.4934,0 -2.3805,1.0498 -0.8724,1.03502 -0.8724,2.89806 0,1.84825 0.9167,3.03114 0.9315,1.18288 2.4693,1.18288 1.0054,0 1.6117,-0.56187 0.621,-0.57666 0.9019,-1.77432 l 0.7097,-0.0592 q -0.2957,1.34553 -0.3992,2.41012 z"
           style="font-size:14.78601837px;line-height:1.25"
           id="path865" />
      </g>
    </g>
  </g>
</svg>
